<?xml version="1.0" encoding="utf-8"?>
<svg xmlns="http://www.w3.org/2000/svg" xml:space="preserve" viewBox="0 0 318.6 318.6">
  <style>
    .st1,.st2,.st3,.st4,.st5,.st6,.st9{fill:#e4761b;stroke:#e4761b;stroke-linecap:round;stroke-linejoin:round}.st2,.st3,.st4,.st5,.st6,.st9{fill:#d7c1b3;stroke:#d7c1b3}.st3,.st4,.st5,.st6,.st9{fill:#233447;stroke:#233447}.st4,.st5,.st6,.st9{fill:#cd6116;stroke:#cd6116}.st5,.st6,.st9{fill:#e4751f;stroke:#e4751f}.st6,.st9{fill:#f6851b;stroke:#f6851b}.st9{fill:#763d16;stroke:#763d16}
  </style>
  <path fill="#e2761b" stroke="#e2761b" stroke-linecap="round" stroke-linejoin="round" d="m274.1 35.5-99.5 73.9L193 65.8z"/>
  <path d="m44.4 35.5 98.7 74.6-17.5-44.3zm193.9 171.3-26.5 40.6 56.7 15.6 16.3-55.3zm-204.4.9L50.1 263l56.7-15.6-26.5-40.6z" class="st1"/>
  <path d="m103.6 138.2-15.8 23.9 56.3 2.5-2-60.5zm111.3 0-39-34.8-1.3 61.2 56.2-2.5zM106.8 247.4l33.8-16.5-29.2-22.8zm71.1-16.5 33.9 16.5-4.7-39.3z" class="st1"/>
  <path d="m211.8 247.4-33.9-16.5 2.7 22.1-.3 9.3zm-105 0 31.5 14.9-.2-9.3 2.5-22.1z" class="st2"/>
  <path d="m138.8 193.5-28.2-8.3 19.9-9.1zm40.9 0 8.3-17.4 20 9.1z" class="st3"/>
  <path d="m106.8 247.4 4.8-40.6-31.3.9zm100.2-40.6 4.8 40.6 26.5-39.7zm23.8-44.7-56.2 2.5 5.2 28.9 8.3-17.4 20 9.1zm-120.2 23.1 20-9.1 8.2 17.4 5.3-28.9-56.3-2.5z" class="st4"/>
  <path d="m87.8 162.1 23.6 46-.8-22.9zm120.3 23.1-.9 22.9 23.7-46z" class="st5"/>
  <path d="m180.6 181.4-5.2 28.9 6.6 34.1 1.5-44.9zm-43.7 0-2.7 18 1.2 45 6.7-34.1z" class="st6"/>
  <path d="M240.9 35.5 193 65.8l6.6 32.7 9.5-12.2 13.1 11.1zM96.3 97.4l13.1-11.1 9.5 12.2 6.7-32.7-47.9-30.3z" class="st9"/>
</svg>
